<svg width="25" height="21" viewBox="0 0 25 21" fill="none" xmlns="http://www.w3.org/2000/svg">
<g clip-path="url(#clip0_422_35447)">
<path d="M12.4993 15.8332C14.3403 15.8332 15.8327 14.3408 15.8327 12.4998C15.8327 10.6589 14.3403 9.1665 12.4993 9.1665C10.6584 9.1665 9.16602 10.6589 9.16602 12.4998C9.16602 14.3408 10.6584 15.8332 12.4993 15.8332Z" fill="#4B8BFF"/>
<path d="M9.37467 2.0835L7.46842 4.16683H4.16634C3.02051 4.16683 2.08301 5.10433 2.08301 6.25016V18.7502C2.08301 19.896 3.02051 20.8335 4.16634 20.8335H20.833C21.9788 20.8335 22.9163 19.896 22.9163 18.7502V6.25016C22.9163 5.10433 21.9788 4.16683 20.833 4.16683H17.5309L15.6247 2.0835H9.37467ZM12.4997 17.7085C9.62467 17.7085 7.29134 15.3752 7.29134 12.5002C7.29134 9.62516 9.62467 7.29183 12.4997 7.29183C15.3747 7.29183 17.708 9.62516 17.708 12.5002C17.708 15.3752 15.3747 17.7085 12.4997 17.7085Z" fill="#4B8BFF"/>
</g>
<defs>
<clipPath id="clip0_422_35447">
<rect width="25" height="21" fill="white"/>
</clipPath>
</defs>
</svg>
