<svg width="24" height="24" viewBox="0 0 24 24" fill="none" xmlns="http://www.w3.org/2000/svg">
<path d="M13.2909 9.29018L9.29092 13.2902C9.19719 13.3831 9.12279 13.4937 9.07202 13.6156C9.02126 13.7375 8.99512 13.8682 8.99512 14.0002C8.99512 14.1322 9.02126 14.2629 9.07202 14.3848C9.12279 14.5066 9.19719 14.6172 9.29092 14.7102C9.38388 14.8039 9.49448 14.8783 9.61634 14.9291C9.7382 14.9798 9.8689 15.006 10.0009 15.006C10.1329 15.006 10.2636 14.9798 10.3855 14.9291C10.5074 14.8783 10.618 14.8039 10.7109 14.7102L14.7109 10.7102C14.8992 10.5219 15.005 10.2665 15.005 10.0002C15.005 9.73388 14.8992 9.47849 14.7109 9.29018C14.5226 9.10188 14.2672 8.99609 14.0009 8.99609C13.7346 8.99609 13.4792 9.10188 13.2909 9.29018Z" fill="#231F20"/>
<path d="M12.2805 17.3999L11.0005 18.6699C10.2819 19.4104 9.31596 19.8604 8.28681 19.9342C7.25766 20.0079 6.23736 19.7003 5.42052 19.0699C4.98879 18.7142 4.63648 18.2718 4.38636 17.7714C4.13623 17.271 3.99385 16.7238 3.9684 16.1649C3.94296 15.6061 4.03502 15.0481 4.23864 14.5271C4.44226 14.006 4.75291 13.5335 5.15052 13.1399L6.57052 11.7099C6.66425 11.617 6.73864 11.5064 6.78941 11.3845C6.84018 11.2627 6.86632 11.132 6.86632 10.9999C6.86632 10.8679 6.84018 10.7372 6.78941 10.6154C6.73864 10.4935 6.66425 10.3829 6.57052 10.2899C6.47756 10.1962 6.36695 10.1218 6.2451 10.071C6.12324 10.0203 5.99253 9.99414 5.86052 9.99414C5.72851 9.99414 5.5978 10.0203 5.47594 10.071C5.35408 10.1218 5.24348 10.1962 5.15052 10.2899L3.88052 11.5699C2.81068 12.6059 2.1531 13.995 2.02989 15.4791C1.90667 16.9633 2.32617 18.4417 3.21052 19.6399C3.7354 20.3209 4.39916 20.8823 5.15771 21.287C5.91626 21.6917 6.75223 21.9303 7.6101 21.9871C8.46797 22.0438 9.32809 21.9174 10.1333 21.6161C10.9386 21.3149 11.6705 20.8458 12.2805 20.2399L13.7005 18.8199C13.8888 18.6316 13.9946 18.3762 13.9946 18.1099C13.9946 17.8436 13.8888 17.5882 13.7005 17.3999C13.5122 17.2116 13.2568 17.1058 12.9905 17.1058C12.7242 17.1058 12.4688 17.2116 12.2805 17.3999Z" fill="#231F20"/>
<path d="M19.661 3.22004C18.4545 2.3265 16.964 1.90272 15.4679 2.02786C13.9717 2.153 12.5723 2.81849 11.531 3.90004L10.451 5.00004C10.3276 5.08977 10.2244 5.20443 10.148 5.33659C10.0717 5.46875 10.024 5.61546 10.008 5.76723C9.99195 5.919 10.008 6.07244 10.055 6.21763C10.102 6.36281 10.179 6.4965 10.281 6.61004C10.374 6.70377 10.4846 6.77816 10.6064 6.82893C10.7283 6.8797 10.859 6.90584 10.991 6.90584C11.123 6.90584 11.2537 6.8797 11.3756 6.82893C11.4975 6.77816 11.6081 6.70377 11.701 6.61004L13.001 5.30004C13.7156 4.55635 14.6805 4.10387 15.7092 4.03C16.7379 3.95612 17.7575 4.26609 18.571 4.90004C19.006 5.25584 19.3611 5.69929 19.6132 6.2015C19.8653 6.70371 20.0088 7.2534 20.0342 7.81477C20.0597 8.37613 19.9666 8.93655 19.761 9.45953C19.5554 9.98251 19.242 10.4563 18.841 10.85L17.421 12.28C17.3273 12.373 17.2529 12.4836 17.2021 12.6055C17.1514 12.7273 17.1252 12.858 17.1252 12.99C17.1252 13.122 17.1514 13.2528 17.2021 13.3746C17.2529 13.4965 17.3273 13.6071 17.421 13.7C17.514 13.7938 17.6246 13.8682 17.7464 13.9189C17.8683 13.9697 17.999 13.9958 18.131 13.9958C18.263 13.9958 18.3937 13.9697 18.5156 13.9189C18.6375 13.8682 18.7481 13.7938 18.841 13.7L20.261 12.28C20.8652 11.6701 21.3329 10.9388 21.6331 10.1346C21.9333 9.33031 22.0592 8.47144 22.0025 7.61484C21.9458 6.75824 21.7077 5.92348 21.304 5.16583C20.9004 4.40818 20.3403 3.74494 19.661 3.22004Z" fill="#231F20"/>
</svg>
