<svg width="24" height="24" viewBox="0 0 24 24" fill="none" xmlns="http://www.w3.org/2000/svg">
<path d="M5.36231 12.0521C4.00983 11.5708 3.33359 11.3302 3.13211 10.9652C2.95751 10.6489 2.94935 10.2671 3.11027 9.94364C3.29596 9.57038 3.9613 9.30108 5.29198 8.76247L17.8346 3.68569C19.1452 3.15523 19.8005 2.88999 20.2144 3.02598C20.5737 3.14402 20.8556 3.42583 20.9736 3.78515C21.1096 4.19912 20.8443 4.8544 20.3139 6.16497L15.2371 18.7076C14.6985 20.0383 14.4292 20.7036 14.0559 20.8893C13.7325 21.0502 13.3506 21.0421 13.0344 20.8675C12.6694 20.666 12.4288 19.9897 11.9475 18.6373L10.4741 14.4965C10.3805 14.2334 10.3337 14.1018 10.2572 13.9919C10.1895 13.8946 10.105 13.8101 10.0076 13.7423C9.89778 13.6659 9.76622 13.6191 9.50309 13.5254L5.36231 12.0521Z" stroke="#333333" stroke-width="2" stroke-linecap="round" stroke-linejoin="round"/>
</svg>
