<svg width="284" height="288" viewBox="0 0 284 288" fill="none" xmlns="http://www.w3.org/2000/svg">
<path d="M42.9892 213.683L90.0755 234.872H90.6641H92.0767H93.4892H96.4321H97.6093H99.1396H99.7282L141.988 215.919L184.248 234.872H184.837L186.249 235.931H187.662H190.605H191.782H193.312L240.398 214.742C242.747 213.842 244.746 212.214 246.101 210.096C247.457 207.977 248.099 205.48 247.932 202.971V59.3577C247.929 57.388 247.431 55.4507 246.485 53.7232C245.539 51.9957 244.175 50.5331 242.517 49.4695C240.623 48.2457 238.416 47.5919 236.161 47.5861C234.495 47.5938 232.85 47.9549 231.334 48.6455L189.074 67.5978L146.814 48.6455H146.226C144.899 48.0253 143.453 47.7038 141.988 47.7038C140.524 47.7038 139.077 48.0253 137.75 48.6455H137.162L94.9018 67.5978L52.6419 48.6455C51.1262 47.9549 49.4812 47.5938 47.8156 47.5861C45.56 47.5919 43.3536 48.2457 41.4589 49.4695C39.8011 50.5331 38.4368 51.9957 37.4907 53.7232C36.5447 55.4507 36.0473 57.388 36.044 59.3577V202.971C36.0487 205.235 36.7065 207.45 37.9383 209.35C39.1702 211.25 40.9239 212.754 42.9892 213.683ZM177.303 205.914L153.76 195.437V77.7213L177.303 88.198V205.914ZM59.5871 77.6036L83.1303 88.0803V205.796L59.5871 195.319V77.6036Z" fill="url(#paint0_linear_488_16430)"/>
<path d="M42.4389 283.332L36.7889 260.031C36.4159 258.493 37.5812 257.011 39.1641 257.011C40.2997 257.011 41.2858 257.794 41.544 258.899L46.8916 281.798C46.9215 281.908 46.9515 282.01 46.9814 282.105C47.0964 282.468 47.3018 282.887 47.6832 282.887C47.8811 282.887 48.046 282.804 48.1779 282.639C48.3429 282.474 48.4583 282.194 48.5243 281.798L54.016 261.497C54.3458 259.947 54.9065 258.825 55.6981 258.133C56.5227 257.407 57.4957 257.044 58.6171 257.044C59.7715 257.044 60.7445 257.407 61.5361 258.133C62.3607 258.825 62.9379 259.93 63.2677 261.447L68.9573 281.798C68.98 281.874 69.0026 281.946 69.0252 282.014C69.1545 282.405 69.3862 282.837 69.7984 282.837C69.9963 282.837 70.1447 282.755 70.2437 282.59C70.3756 282.392 70.4746 282.128 70.5405 281.798L75.4668 258.946C75.7101 257.817 76.7081 257.011 77.8627 257.011C79.4346 257.011 80.6002 258.47 80.2533 260.003L75.0427 283.035C74.7459 284.519 74.1687 285.69 73.3111 286.548C72.4865 287.372 71.3981 287.785 70.0458 287.785C68.7264 287.785 67.6215 287.405 66.731 286.647C65.8734 285.855 65.2467 284.701 64.8509 283.183L59.1119 262.413C59.104 262.358 59.0943 262.308 59.0828 262.262C59.0264 262.04 58.8462 261.819 58.6171 261.819C58.5182 261.819 58.4192 261.869 58.3203 261.968C58.2543 262.034 58.1883 262.182 58.1224 262.413L52.5317 283.48C52.2349 284.865 51.6247 285.937 50.7012 286.696C49.8106 287.455 48.7716 287.834 47.5843 287.834C46.2979 287.834 45.193 287.455 44.2694 286.696C43.3789 285.904 42.7687 284.783 42.4389 283.332Z" fill="#4B8BFF"/>
<path d="M94.6652 287.57C92.2245 287.57 90.0311 287.026 88.0851 285.937C86.1391 284.816 84.6054 283.299 83.484 281.386C82.3625 279.44 81.8018 277.23 81.8018 274.756C81.8018 272.447 82.313 270.336 83.3355 268.423C84.358 266.477 85.7928 264.944 87.6398 263.822C89.4869 262.668 91.6308 262.091 94.0715 262.091C96.5123 262.091 98.6067 262.635 100.355 263.723C102.136 264.779 103.505 266.23 104.461 268.077C105.451 269.891 105.945 271.92 105.945 274.162C105.945 275.255 105.059 276.141 103.966 276.141H86.0935C85.8673 276.141 85.7164 275.908 85.8092 275.702C85.9512 275.386 86.4981 275.504 86.5325 275.849C86.6374 276.899 86.9075 277.871 87.343 278.764C88.0026 280.116 88.9592 281.204 90.2125 282.029C91.4659 282.821 92.9336 283.216 94.6158 283.216C96.133 283.216 97.5018 282.887 98.7222 282.227C99.3719 281.885 99.9507 281.454 100.459 280.935C101.271 280.104 102.514 279.681 103.548 280.211C104.6 280.751 105.036 282.058 104.329 283.006C103.428 284.215 102.335 285.192 101.047 285.937C99.1674 287.026 97.04 287.57 94.6652 287.57ZM86.7493 272.975H97.4387C99.4012 272.975 101.059 271.219 100.009 269.561C99.4148 268.572 98.5902 267.813 97.5348 267.285C96.5123 266.758 95.3414 266.494 94.0221 266.494C92.6698 266.494 91.4659 266.774 90.4104 267.335C89.3879 267.896 88.5634 268.671 87.9367 269.66C87.343 270.65 86.9472 271.755 86.7493 272.975Z" fill="#4B8BFF"/>
<path d="M121.985 287.57C119.544 287.57 117.351 287.026 115.405 285.937C113.459 284.816 111.925 283.299 110.804 281.386C109.682 279.44 109.122 277.23 109.122 274.756C109.122 272.447 109.633 270.336 110.655 268.423C111.678 266.477 113.112 264.944 114.96 263.822C116.807 262.668 118.951 262.091 121.391 262.091C123.832 262.091 125.926 262.635 127.675 263.723C129.456 264.779 130.824 266.23 131.781 268.077C132.77 269.891 133.265 271.92 133.265 274.162C133.265 275.255 132.379 276.141 131.286 276.141H113.413C113.187 276.141 113.036 275.908 113.129 275.702C113.271 275.386 113.818 275.504 113.852 275.849C113.957 276.899 114.227 277.871 114.663 278.764C115.322 280.116 116.279 281.204 117.532 282.029C118.786 282.821 120.253 283.216 121.935 283.216C123.453 283.216 124.821 282.887 126.042 282.227C126.692 281.885 127.27 281.454 127.778 280.935C128.591 280.104 129.833 279.681 130.867 280.211C131.92 280.751 132.355 282.058 131.649 283.006C130.748 284.215 129.654 285.192 128.367 285.937C126.487 287.026 124.36 287.57 121.985 287.57ZM114.069 272.975H124.758C126.721 272.975 128.378 271.219 127.328 269.561C126.735 268.572 125.91 267.813 124.854 267.285C123.832 266.758 122.661 266.494 121.342 266.494C119.989 266.494 118.786 266.774 117.73 267.335C116.708 267.896 115.883 268.671 115.256 269.66C114.663 270.65 114.267 271.755 114.069 272.975Z" fill="#4B8BFF"/>
<path d="M144.506 284.503C144.506 285.896 143.376 287.026 141.982 287.026C140.589 287.026 139.459 285.896 139.459 284.503V259.534C139.459 258.141 140.589 257.011 141.982 257.011C143.376 257.011 144.506 258.141 144.506 259.534V268.176H159.092C160.736 268.176 162.069 266.843 162.069 265.199V259.534C162.069 258.141 163.199 257.011 164.592 257.011C165.986 257.011 167.116 258.141 167.116 259.534V284.503C167.116 285.896 165.986 287.026 164.592 287.026C163.199 287.026 162.069 285.896 162.069 284.503V272.827H144.506V284.503Z" fill="#4B8BFF"/>
<path d="M185.804 287.57C183.363 287.57 181.17 287.026 179.224 285.937C177.278 284.816 175.744 283.299 174.623 281.386C173.502 279.44 172.941 277.23 172.941 274.756C172.941 272.447 173.452 270.336 174.475 268.423C175.497 266.477 176.932 264.944 178.779 263.822C180.626 262.668 182.77 262.091 185.211 262.091C187.651 262.091 189.746 262.635 191.494 263.723C193.275 264.779 194.644 266.23 195.6 268.077C196.59 269.891 197.084 271.92 197.084 274.162C197.084 275.255 196.198 276.141 195.105 276.141H177.232C177.006 276.141 176.855 275.908 176.948 275.702C177.09 275.386 177.637 275.504 177.671 275.849C177.776 276.899 178.047 277.871 178.482 278.764C179.142 280.116 180.098 281.204 181.352 282.029C182.605 282.821 184.073 283.216 185.755 283.216C187.272 283.216 188.641 282.887 189.861 282.227C190.511 281.885 191.09 281.454 191.598 280.935C192.41 280.104 193.652 279.681 194.687 280.211C195.739 280.751 196.175 282.058 195.468 283.006C194.567 284.215 193.474 285.192 192.186 285.937C190.306 287.026 188.179 287.57 185.804 287.57ZM177.888 272.975H188.578C190.54 272.975 192.198 271.219 191.148 269.561C190.554 268.572 189.729 267.813 188.674 267.285C187.651 266.758 186.48 266.494 185.161 266.494C183.809 266.494 182.605 266.774 181.549 267.335C180.527 267.896 179.702 268.671 179.076 269.66C178.482 270.65 178.086 271.755 177.888 272.975Z" fill="#4B8BFF"/>
<path d="M212.431 287.62C210.089 287.62 207.995 287.042 206.148 285.888C204.334 284.734 202.899 283.2 201.844 281.287C200.788 279.341 200.26 277.197 200.26 274.855C200.26 272.546 200.821 270.435 201.943 268.522C203.097 266.576 204.647 265.043 206.593 263.921C208.539 262.767 210.733 262.19 213.173 262.19C215.614 262.19 217.808 262.75 219.754 263.872C221.7 264.96 223.233 266.461 224.355 268.374C225.509 270.287 226.086 272.447 226.086 274.855V284.701C226.086 285.985 225.045 287.026 223.761 287.026C222.477 287.026 221.436 285.985 221.436 284.701V278.388C221.436 278.126 221.558 277.879 221.766 277.72C222.319 277.296 223.1 277.692 223.006 278.383C222.818 279.765 222.393 281.047 221.732 282.227C220.842 283.876 219.589 285.195 217.972 286.185C216.389 287.141 214.542 287.62 212.431 287.62ZM213.173 282.969C214.691 282.969 216.059 282.606 217.28 281.881C218.5 281.155 219.457 280.182 220.149 278.962C220.842 277.708 221.188 276.356 221.188 274.905C221.188 273.42 220.842 272.068 220.149 270.848C219.457 269.627 218.5 268.654 217.28 267.929C216.059 267.17 214.691 266.791 213.173 266.791C211.656 266.791 210.287 267.17 209.067 267.929C207.88 268.654 206.923 269.627 206.197 270.848C205.505 272.068 205.158 273.42 205.158 274.905C205.158 276.356 205.505 277.708 206.197 278.962C206.923 280.182 207.88 281.155 209.067 281.881C210.287 282.606 211.656 282.969 213.173 282.969Z" fill="#4B8BFF"/>
<path d="M242.997 287.669C241.018 287.669 239.336 287.273 237.951 286.482C236.566 285.69 235.51 284.602 234.785 283.216C234.092 281.798 233.746 280.165 233.746 278.318V269.33C233.746 267.818 233.434 266.323 232.83 264.937L231.892 262.783C232.916 262.783 233.746 261.954 233.746 260.93V260.732V258.949C233.746 257.596 234.842 256.5 236.195 256.5C237.547 256.5 238.644 257.596 238.644 258.949V278.17C238.644 279.753 239.072 280.99 239.93 281.881C240.82 282.771 241.991 283.216 243.443 283.216C244.234 283.216 245.026 283.084 245.817 282.821C246.762 282.518 247.945 283.167 247.945 284.159V285.294C247.945 285.91 247.634 286.495 247.074 286.753C246.649 286.948 246.181 287.122 245.669 287.273C244.778 287.537 243.888 287.669 242.997 287.669ZM247.945 264.911C247.945 266.086 246.992 267.038 245.817 267.038H231.074C229.899 267.038 228.947 266.086 228.947 264.911C228.947 263.736 229.899 262.783 231.074 262.783H245.817C246.992 262.783 247.945 263.736 247.945 264.911Z" fill="#4B8BFF"/>
<defs>
<linearGradient id="paint0_linear_488_16430" x1="23.1964" y1="47.5861" x2="247.958" y2="222.661" gradientUnits="userSpaceOnUse">
<stop stop-color="#FD6552"/>
<stop offset="1" stop-color="#4D8CFF"/>
</linearGradient>
</defs>
</svg>