<svg width="20" height="20" viewBox="0 0 20 20" fill="none" xmlns="http://www.w3.org/2000/svg">
<path d="M12.4995 9.99997H7.49954V11.6666M12.4995 9.99997L10.8329 8.3333M12.4995 9.99997L10.8329 11.6666M11.8851 16.4477L16.4473 11.8856C17.1073 11.2256 17.4373 10.8955 17.5609 10.515C17.6697 10.1803 17.6697 9.81968 17.5609 9.48494C17.4373 9.10439 17.1073 8.77438 16.4473 8.11435L11.8851 3.5522C11.2251 2.89217 10.8951 2.56215 10.5145 2.43851C10.1798 2.32974 9.81919 2.32974 9.48445 2.43851C9.10391 2.56215 8.77389 2.89217 8.11386 3.55219L3.55171 8.11435C2.89168 8.77438 2.56167 9.10439 2.43802 9.48494C2.32925 9.81968 2.32925 10.1803 2.43802 10.515C2.56167 10.8955 2.89168 11.2256 3.55171 11.8856L8.11386 16.4477C8.77389 17.1078 9.10391 17.4378 9.48445 17.5614C9.81919 17.6702 10.1798 17.6702 10.5145 17.5614C10.8951 17.4378 11.2251 17.1078 11.8851 16.4477Z" stroke="#4B8BFF" stroke-width="1.5" stroke-linecap="round" stroke-linejoin="round"/>
</svg>
