<?xml version="1.0" encoding="UTF-8"?>
<svg id="Capa_2" data-name="Capa 2" xmlns="http://www.w3.org/2000/svg" viewBox="0 0 34 40">
  <defs>
    <style>
      .cls-1 {
        fill: #d13037;
      }

      .cls-2 {
        fill: none;
        stroke: #fff;
        stroke-linecap: round;
        stroke-linejoin: round;
        stroke-width: 1.5px;
      }
    </style>
  </defs>
  <g id="Capa_1-2" data-name="Capa 1">
    <path class="cls-1" d="m29.02,5.15c3.12,3.23,4.91,7.58,4.98,12.14.07,4.56-1.58,8.97-4.59,12.3l-.38.41-8.01,8.28c-1.02,1.05-2.38,1.66-3.82,1.71-1.44.05-2.84-.47-3.92-1.45l-.27-.26-8.02-8.29C1.79,26.7,0,22.23,0,17.57S1.79,8.44,4.98,5.15C8.17,1.85,12.49,0,17,0s8.83,1.85,12.02,5.15Z"/>
    <path class="cls-2" d="m21,11.7v-.8c0-1.12,0-1.68-.22-2.11-.19-.38-.5-.68-.87-.87-.43-.22-.99-.22-2.11-.22h-1.6c-1.12,0-1.68,0-2.11.22-.38.19-.68.5-.87.87-.22.43-.22.99-.22,2.11v.8m-1,0v14m10-14v14m-7-7h4m-2-2v4m-4.2,5h8.4c1.68,0,2.52,0,3.16-.33.56-.29,1.02-.75,1.31-1.31.33-.64.33-1.48.33-3.16v-4.4c0-1.68,0-2.52-.33-3.16-.29-.56-.75-1.02-1.31-1.31-.64-.33-1.48-.33-3.16-.33h-8.4c-1.68,0-2.52,0-3.16.33-.56.29-1.02.75-1.31,1.31-.33.64-.33,1.48-.33,3.16v4.4c0,1.68,0,2.52.33,3.16.29.56.75,1.02,1.31,1.31.64.33,1.48.33,3.16.33Z"/>
  </g>
</svg>