<?xml version="1.0" encoding="UTF-8"?>
<svg id="Capa_2" data-name="Capa 2" xmlns="http://www.w3.org/2000/svg" viewBox="0 0 219.78 258.56">
  <defs>
    <style>
      .cls-1 {
        fill: #fff;
      }

      .cls-2 {
        fill: #ffdf6c;
      }
    </style>
  </defs>
  <g id="Capa_1-2" data-name="Capa 1">
    <path class="cls-2" d="m187.59,33.27c20.17,20.85,31.71,49,32.18,78.49.46,29.49-10.19,58.01-29.7,79.53l-2.48,2.65-51.8,53.54c-6.57,6.79-15.4,10.75-24.69,11.06-9.29.32-18.35-3.03-25.34-9.36l-1.76-1.7-51.82-53.56C11.58,172.62,0,143.73,0,113.6S11.58,54.58,32.19,33.27C52.79,11.97,80.74,0,109.89,0s57.09,11.97,77.7,33.27Z"/>
    <path class="cls-1" d="m168,175.29H51.65c-3.04,0-5.5-2.46-5.5-5.5s2.46-5.5,5.5-5.5h116.35c3.04,0,5.5,2.46,5.5,5.5s-2.46,5.5-5.5,5.5Zm-19.39-19.39s-.05,0-.08,0h-25.71c-.05,0-.1,0-.15,0h-25.71c-.05,0-.1,0-.15,0h-25.71c-.05,0-.1,0-.15,0h-19.32c-3.04,0-5.5-2.46-5.5-5.5s2.46-5.5,5.5-5.5h13.89v-26.82c0-3.04,2.46-5.5,5.5-5.5s5.5,2.46,5.5,5.5v26.82h14.86v-26.82c0-3.04,2.46-5.5,5.5-5.5s5.5,2.46,5.5,5.5v26.82h14.86v-26.82c0-3.04,2.46-5.5,5.5-5.5s5.5,2.46,5.5,5.5v26.82h14.86v-26.82c0-3.04,2.46-5.5,5.5-5.5s5.5,2.46,5.5,5.5v26.82h13.89c3.04,0,5.5,2.46,5.5,5.5s-2.46,5.5-5.5,5.5h-19.32s-.05,0-.08,0Zm19.39-51.71H51.65c-2.28,0-4.33-1.41-5.14-3.55s-.22-4.55,1.49-6.07l44.43-39.5c5.29-4.7,8.2-7.29,12.12-8.46,3.46-1.03,7.11-1.03,10.56,0,3.91,1.17,6.82,3.76,12.11,8.46l44.44,39.5c1.71,1.52,2.3,3.93,1.49,6.07s-2.86,3.55-5.14,3.55Zm-101.89-11h87.42l-33.62-29.89c-3.98-3.54-6.38-5.67-7.96-6.15-1.39-.42-2.87-.42-4.26,0-1.58.47-3.98,2.61-7.96,6.14l-33.63,29.89Z"/>
  </g>
</svg>