<?xml version="1.0" encoding="UTF-8"?>
<svg id="Capa_2" data-name="Capa 2" xmlns="http://www.w3.org/2000/svg" viewBox="0 0 214.68 252.56">
  <defs>
    <style>
      .cls-1 {
        fill: #fff;
      }

      .cls-2 {
        fill: #2bcb75;
      }
    </style>
  </defs>
  <g id="Capa_1-2" data-name="Capa 1">
    <path class="cls-2" d="m183.23,32.5c19.71,20.37,30.98,47.86,31.43,76.67.45,28.8-9.95,56.66-29.01,77.68l-2.42,2.59-50.6,52.3c-6.42,6.63-15.04,10.5-24.11,10.8-9.07.31-17.92-2.96-24.75-9.14l-1.72-1.66-50.61-52.31C11.31,168.61,0,140.39,0,110.96S11.31,53.31,31.44,32.5C51.57,11.69,78.87,0,107.34,0s55.77,11.69,75.9,32.5Z"/>
    <path class="cls-1" d="m162.1,94.91c0-31.16-23.93-56.51-53.35-56.51s-53.36,25.35-53.36,56.51c0,29.01,20.75,52.98,47.36,56.14v19.62c0,3.31,2.69,6,6,6s6-2.69,6-6v-19.62c26.6-3.17,47.35-27.13,47.35-56.14Zm-47.35,44.04v-35.24l17.18-17.18c2.34-2.34,2.34-6.14,0-8.49-2.34-2.34-6.14-2.34-8.49,0l-8.7,8.7v-10.77c0-3.31-2.69-6-6-6s-6,2.69-6,6v25.26h0v7.62l-8.7-8.7c-2.34-2.34-6.14-2.34-8.48,0-2.34,2.34-2.34,6.14,0,8.49l17.18,17.18v13.14c-19.97-3.14-35.36-21.69-35.36-44.04,0-24.54,18.55-44.51,41.36-44.51s41.35,19.97,41.35,44.51c0,22.35-15.39,40.9-35.35,44.04Z"/>
  </g>
</svg>