<?xml version="1.0" encoding="UTF-8"?>
<svg id="Capa_2" data-name="Capa 2" xmlns="http://www.w3.org/2000/svg" viewBox="0 0 208.53 245.33">
  <defs>
    <style>
      .cls-1 {
        fill: #fff;
      }

      .cls-2 {
        fill: #d13037;
      }
    </style>
  </defs>
  <g id="Capa_1-2" data-name="Capa 1">
    <path class="cls-2" d="m178.07,31.65c19.12,19.81,30.04,46.52,30.45,74.5.41,27.98-9.72,55.03-28.26,75.42l-2.35,2.51-49.21,50.75c-6.24,6.44-14.62,10.18-23.43,10.47-8.81.29-17.4-2.89-24.03-8.9l-1.67-1.62-49.11-50.87C10.92,163.68-.03,136.26,0,107.67c.03-28.59,11.04-55.99,30.62-76.18C50.19,11.3,76.72-.03,104.38,0s54.16,11.41,73.69,31.65Z"/>
    <path class="cls-1" d="m155.33,165.38l-102.26-.11c-2.03,0-3.67-1.65-3.67-3.68s1.65-3.67,3.68-3.67h7.69s.1-93.53.1-93.53c0-8.72,6.76-15.82,15.05-15.81l56.81.06c8.29,0,15.03,7.11,15.02,15.84l-.1,93.54h7.69c2.03.01,3.67,1.66,3.67,3.68s-1.65,3.67-3.68,3.67Zm-36.09-7.38l21.06.02.1-93.54c0-4.68-3.44-8.48-7.68-8.49l-56.81-.06c-4.24,0-7.69,3.8-7.7,8.47l-.1,93.54,21.06.02.03-26.71c0-5.37,4.21-9.74,9.36-9.74h11.36c5.16.02,9.35,4.39,9.34,9.77l-.03,26.71Zm-22.72-.02l15.38.02.03-26.71c0-1.33-.9-2.41-2.01-2.41h-11.36c-1.11-.01-2.01,1.06-2.01,2.39l-.03,26.71Zm24.79-53.39h-5.68c-2.03,0-3.67-1.65-3.67-3.68s1.65-3.67,3.68-3.67h5.68c2.03,0,3.67,1.65,3.67,3.68s-1.65,3.67-3.68,3.67Zm-28.4-.03h-5.68c-2.03,0-3.67-1.65-3.67-3.68s1.65-3.67,3.68-3.67h5.68c2.03,0,3.67,1.65,3.67,3.68s-1.65,3.67-3.68,3.67Zm28.43-24.27h-5.68c-2.03,0-3.67-1.65-3.67-3.68s1.65-3.67,3.68-3.67h5.68c2.03,0,3.67,1.65,3.67,3.68s-1.65,3.67-3.68,3.67Zm-28.4-.03h-5.68c-2.03,0-3.67-1.65-3.67-3.68s1.65-3.67,3.68-3.67h5.68c2.03,0,3.67,1.65,3.67,3.68s-1.65,3.67-3.68,3.67Z"/>
  </g>
</svg>