<?xml version="1.0" encoding="UTF-8"?>
<svg id="Capa_2" data-name="Capa 2" xmlns="http://www.w3.org/2000/svg" viewBox="0 0 283.58 324.46">
  <defs>
    <style>
      .cls-1 {
        fill: #fff;
      }

      .cls-2 {
        fill: #4b8bff;
      }
    </style>
  </defs>
  <g id="Capa_1-2" data-name="Capa 1">
    <path class="cls-2" d="m242.04,41.75c26.03,26.17,40.92,61.49,41.52,98.49.6,37-13.14,72.79-38.32,99.79l-3.2,3.33-66.84,67.19c-8.48,8.52-19.87,13.48-31.85,13.88-11.98.4-23.67-3.8-32.69-11.74l-2.27-2.14-66.86-67.2C14.94,216.61,0,180.36,0,142.55S14.94,68.48,41.53,41.75C68.12,15.02,104.18,0,141.79,0s73.67,15.02,100.26,41.75Z"/>
    <path class="cls-1" d="m216.08,166.78h-42.74v-34.47c0-2.58,1.01-5.01,2.83-6.84,1.83-1.83,4.25-2.83,6.84-2.83s5.01,1.01,6.83,2.83c1.83,1.83,2.83,4.26,2.83,6.84,0,3.79,3.08,6.87,6.87,6.87s6.87-3.08,6.87-6.87c0-6.25-2.43-12.13-6.86-16.55-4.42-4.42-10.3-6.85-16.55-6.85s-12.13,2.43-16.55,6.86c-4.42,4.42-6.85,10.3-6.85,16.55v34.47h-11.07v-75.82c0-4.79,1.87-9.3,5.25-12.68,3.39-3.39,7.89-5.25,12.68-5.25s9.3,1.87,12.68,5.25c3.39,3.39,5.25,7.89,5.25,12.68,0,3.79,3.08,6.87,6.87,6.87s6.87-3.08,6.87-6.87c0-8.46-3.29-16.42-9.28-22.4-5.98-5.98-13.94-9.28-22.4-9.28s-16.42,3.29-22.4,9.28c-.86.86-1.66,1.76-2.41,2.69-.75-.94-1.55-1.83-2.41-2.69-5.98-5.98-13.94-9.28-22.4-9.28s-16.42,3.29-22.4,9.28c-5.98,5.98-9.28,13.94-9.28,22.4,0,3.79,3.08,6.87,6.87,6.87s6.87-3.08,6.87-6.87c0-4.79,1.87-9.3,5.25-12.68,3.39-3.39,7.89-5.25,12.68-5.25s9.3,1.87,12.68,5.25c3.39,3.39,5.25,7.89,5.25,12.68v75.82h-11.07v-34.47c0-6.25-2.43-12.13-6.86-16.55-4.42-4.42-10.3-6.85-16.55-6.85s-12.13,2.43-16.55,6.86c-4.42,4.42-6.86,10.3-6.86,16.55,0,3.79,3.08,6.87,6.87,6.87s6.87-3.08,6.87-6.87c0-2.58,1.01-5.01,2.83-6.84,1.83-1.83,4.25-2.83,6.84-2.83s5.01,1.01,6.84,2.83c1.83,1.83,2.83,4.25,2.83,6.84v34.47h-42.74c-3.79,0-6.87,3.08-6.87,6.87v16.54c0,8.46,3.29,16.41,9.28,22.4,5.98,5.98,13.94,9.28,22.4,9.28h99.22c8.46,0,16.41-3.29,22.4-9.28,5.98-5.98,9.28-13.94,9.28-22.4v-16.54c0-3.79-3.08-6.87-6.87-6.87Zm-6.87,23.41c0,4.79-1.87,9.29-5.25,12.68s-7.89,5.25-12.68,5.25h-99.22c-4.79,0-9.3-1.87-12.68-5.25-3.39-3.39-5.25-7.89-5.25-12.68v-9.67h135.09v9.67Z"/>
  </g>
</svg>