<?xml version="1.0" encoding="UTF-8"?>
<svg id="Capa_2" data-name="Capa 2" xmlns="http://www.w3.org/2000/svg" viewBox="0 0 619.19 708.46">
  <defs>
    <style>
      .cls-1 {
        fill: #4b8bff;
      }

      .cls-2 {
        fill: none;
        stroke: #fff;
        stroke-linecap: round;
        stroke-linejoin: round;
        stroke-width: 30px;
      }
    </style>
  </defs>
  <g id="Capa_1-2" data-name="Capa 1">
    <path class="cls-1" d="m528.5,91.17c56.84,57.14,89.35,134.26,90.65,215.06,1.3,80.8-28.7,158.94-83.67,217.9l-6.98,7.26-145.95,146.71c-18.52,18.61-43.38,29.44-69.55,30.31-26.17.87-51.68-8.3-71.38-25.64l-4.95-4.67-145.99-146.74C32.62,472.98,0,393.81,0,311.26S32.62,149.54,90.68,91.17C148.74,32.79,227.48,0,309.59,0s160.85,32.79,218.91,91.17Z"/>
    <g>
      <path class="cls-2" d="m255.16,379.18v-90.27c0-9.58-3.8-18.76-10.58-25.53-6.77-6.77-15.96-10.58-25.53-10.58s-18.76,3.8-25.53,10.58c-6.77,6.77-10.58,15.96-10.58,25.53m180.55,90.27v-90.27c0-9.58,3.8-18.76,10.57-25.53,6.77-6.77,15.96-10.58,25.53-10.58s18.76,3.8,25.53,10.58c6.77,6.77,10.58,15.96,10.58,25.53"/>
      <path class="cls-2" d="m309.32,379.18v-180.55m0,0c0-14.37,5.71-28.14,15.86-38.3,10.16-10.16,23.93-15.86,38.3-15.86s28.14,5.71,38.3,15.86c10.16,10.16,15.86,23.93,15.86,38.3m-108.33,0c0-14.37-5.71-28.14-15.86-38.3-10.16-10.16-23.93-15.86-38.3-15.86s-28.14,5.71-38.3,15.86c-10.16,10.16-15.86,23.93-15.86,38.3m-54.16,180.55h324.98v36.11c0,14.36-5.71,28.14-15.86,38.3-10.16,10.16-23.93,15.86-38.3,15.86h-216.65c-14.37,0-28.14-5.71-38.3-15.86-10.16-10.16-15.86-23.93-15.86-38.3v-36.11Z"/>
    </g>
  </g>
</svg>